<?xml version="1.0" encoding="UTF-8"?><svg id="Layer_1" xmlns="http://www.w3.org/2000/svg" viewBox="0 0 589.688 225.199"><defs><style>.cls-1{fill:#695981;stroke-width:0px;}</style></defs><path class="cls-1" d="m212.009,98.37c-2.959-.457-8.559-.457-8.559-4.915,0-2.972,6.126-18.511,7.186-22.626h25.254c1.373,5.028,7.288,19.654,7.288,22.97,0,4.571-5.706,4.571-8.873,4.571v2.4h27.577v-2.4c-5.706-.914-6.974-4.002-9.297-10.515l-24.727-68.105c-2.535,3.313-5.071,6.742-8.556,8.913l1.9,3.429-21.553,60.794c-1.056,3.085-3.7,5.256-6.765,5.484v2.4h19.127v-2.4Zm10.777-62.965l11.938,32.34h-22.927l10.988-32.34Z"/><path class="cls-1" d="m283.868,98.599c-4.438-.344-5.812-.344-5.812-6.285V20.892c-4.647,1.599-9.403,3.886-14.371,5.256v1.374c2.221.113,3.594.798,4.544,1.711,1.479,1.602,1.479,4.342,1.479,7.202v55.879c0,5.941-1.374,5.941-6.13,6.285v2.171h20.289v-2.171Z"/><path class="cls-1" d="m293.786,92.313c0,5.944-1.374,5.944-6.868,6.285v2.171h23.245v-2.171c-6.656-.341-8.03-.341-8.03-6.285v-35.196h10.144l1.056-4.915h-11.2v-16.456c0-6.053,1.797-11.313,6.55-11.313,6.762,0,5.706,9.83,11.2,9.83,2.747,0,4.438-2.059,4.438-4.915,0-6.169-6.868-8.457-11.518-8.457-5.6,0-18.383,2.972-19.018,26.74v4.571h-6.55l-1.059,4.915h7.609v35.196Z"/><path class="cls-1" d="m313.727,55.631v1.142c3.7,1.943,4.862,2.171,4.862,6.63v28.911c0,5.944-1.374,5.944-5.918,6.285v2.171h21.027v-2.171c-5.388-.341-6.762-.341-6.762-6.285v-30.281c0-1.83,3.909-5.031,5.706-5.031,2.744,0,4.544,1.943,6.232,1.943,2.221,0,4.015-1.827,4.015-4.342,0-3.542-2.535-5.256-5.6-5.256-4.541,0-7.924,5.372-10.565,8.685v-8.228c-4.332,1.831-8.559,4.23-12.997,5.829Z"/><path class="cls-1" d="m362.621,102.027c10.883,0,18.174-7.543,21.553-18.283l-1.794-.573c-2.641,6.858-9.089,11.313-15.956,11.313-11.2,0-18.7-8.685-18.7-20.683,0-2.171.212-4.343.529-6.514h35.395c-2.429-11.426-10.882-17.141-21.341-17.141-13.103,0-22.612,12.226-22.612,25.939,0,15.43,8.662,25.942,22.927,25.942Zm-1.374-49.481c6.868,0,9.195,5.6,9.615,12.114h-21.871c2.009-6.285,5.388-12.114,12.256-12.114Z"/><path class="cls-1" d="m406.481,102.028c6.126,0,10.989-2.744,14.58-7.887h.212v7.887l13.841-4.346v-.798l-5.494-1.83V20.892c-5.071,1.827-9.827,4.342-14.897,6.285v1.029c1.476,0,2.535.112,3.909.798,2.747,1.373,2.641,4.001,2.641,6.629v18.055c-3.909-2.059-8.03-3.542-12.256-3.542-14.477,0-22.93,11.313-22.93,26.511,0,13.14,7.291,25.37,20.395,25.37Zm2.218-49.709c3.277,0,12.574,1.943,12.574,16.34v22.738c-2.959,3.429-6.868,5.945-11.306,5.945-4.541,0-15.321-3.541-15.321-22.97,0-9.598,3.065-22.053,14.053-22.053Z"/><path class="cls-1" d="m125.84,73.655c0-5.119-5.041-6.976-5.041-6.976,0,0-5.041,1.857-5.041,6.976,0,2.717.031,26.463.031,26.463h10.083s-.031-23.746-.031-26.463Z"/><path class="cls-1" d="m115.186,115.282c-.082-.091-.161-.184-.245-.274-.164-.176-.335-.349-.507-.521-.063-.063-.122-.127-.185-.19-.006-.006-.013-.012-.019-.018-3.703,3.618-5.58,8.024-5.58,13.11,0,6.272-.061,22.092-.079,26.401h11.161c.014-3.399.079-25.595.079-25.778,0-.006,0-.431,0-.623,0-.328-.008-.654-.024-.976-.005-.108-.016-.213-.023-.32-.014-.214-.027-.428-.048-.639-.012-.126-.03-.251-.045-.376-.022-.19-.044-.379-.073-.566-.02-.132-.044-.262-.067-.393-.031-.178-.061-.356-.097-.532-.027-.134-.059-.267-.089-.4-.039-.17-.078-.339-.121-.507-.035-.134-.073-.267-.111-.4-.047-.164-.094-.327-.146-.489-.042-.133-.088-.265-.133-.397-.055-.159-.111-.317-.171-.475-.05-.131-.102-.261-.154-.391-.063-.156-.129-.31-.197-.464-.057-.128-.115-.256-.175-.382-.072-.153-.147-.304-.223-.454-.063-.125-.128-.249-.194-.373-.081-.15-.165-.298-.251-.446-.07-.121-.14-.242-.213-.362-.09-.148-.185-.294-.28-.44-.076-.117-.151-.234-.23-.349-.101-.147-.206-.292-.312-.437-.081-.111-.16-.222-.244-.332-.113-.148-.232-.294-.35-.44-.084-.103-.165-.208-.251-.31-.13-.154-.266-.305-.402-.456Z"/><path class="cls-1" d="m120.105,118.776c.09.192.175.385.259.579.064.148.128.296.189.445.081.201.156.405.23.609.04.108.085.215.123.324.038-.11.084-.217.123-.327.074-.203.148-.405.229-.606.06-.15.125-.297.189-.446.084-.194.169-.387.259-.579.07-.148.143-.295.216-.442.094-.188.191-.374.291-.56.079-.146.16-.29.242-.434.105-.183.213-.364.324-.544.087-.142.175-.283.266-.422.117-.179.238-.356.361-.532.095-.136.189-.272.287-.406.13-.177.265-.351.401-.525.101-.129.2-.258.304-.385.146-.178.299-.353.452-.528.103-.118.203-.237.309-.353.172-.189.353-.374.533-.558.084-.086.162-.174.247-.259-2.17-1.741-4.208-2.731-5.034-3.095-.825.364-2.864,1.353-5.034,3.095.084.083.16.17.242.254.182.187.364.373.538.564.105.115.204.233.305.349.154.176.308.352.455.532.104.127.202.255.302.384.136.174.272.349.402.526.098.134.192.27.287.406.123.176.244.353.361.533.091.14.179.281.266.422.111.18.219.361.324.544.083.144.164.289.242.434.1.185.197.372.291.56.074.147.147.294.216.442Z"/><path class="cls-1" d="m35.237,122.24c.701,0,1.226-.204,1.604-.625.379-.421.572-1.045.572-1.853,0-.647-.154-1.237-.458-1.755-.3-.511-1.032-1.26-2.176-2.227-1.265.856-1.881,2.016-1.881,3.541,0,.89.218,1.61.649,2.141.425.524.978.779,1.69.779Z"/><path class="cls-1" d="m133.159,127.39c0-5.086-1.876-9.492-5.58-13.11-.006.006-.013.012-.019.018-.062.061-.121.124-.182.186-.173.174-.345.348-.51.525-.083.09-.161.181-.242.272-.137.152-.274.304-.404.459-.085.101-.166.205-.249.307-.119.147-.238.294-.352.443-.083.109-.162.22-.242.33-.106.146-.212.292-.313.44-.078.115-.153.231-.229.347-.095.147-.19.294-.281.442-.073.119-.142.239-.212.36-.086.149-.171.298-.252.448-.066.123-.13.247-.193.371-.077.151-.152.303-.224.456-.06.126-.117.253-.174.38-.068.154-.134.31-.198.466-.052.129-.104.258-.153.388-.06.158-.117.317-.172.477-.045.131-.09.262-.133.395-.052.163-.1.327-.147.491-.038.132-.076.265-.111.398-.044.169-.083.339-.122.509-.03.132-.062.264-.089.398-.036.176-.067.355-.097.533-.023.13-.047.26-.067.391-.028.188-.05.378-.073.567-.015.125-.033.249-.045.375-.021.211-.034.425-.048.639-.007.107-.017.212-.023.32-.016.323-.024.648-.024.976,0,.193,0,.397,0,.607v.015c0,.185-.076,25.152-.079,25.779h11.161c.017-4.297.079-20.129.079-26.401Z"/><path class="cls-1" d="m36.335,113.784c.396-.331.751-.795,1.057-1.382.339-.652.51-1.277.51-1.858,0-.867-.191-1.546-.568-2.02-.371-.465-.866-.691-1.515-.691-.702,0-1.219.193-1.582.591-.363.398-.547.994-.547,1.771,0,.889.89,2.097,2.646,3.589Z"/><path class="cls-1" d="m93.267,79.094c-1.16.832-2.055,2.726-2.055,4.273h0v16.752h4.336v-19.552c0-1.716-1.051-2.354-2.28-1.473Z"/><path class="cls-1" d="m137.477,76.741c0-1.948-1.579-3.528-3.528-3.528s-3.528,1.58-3.528,3.528h0v23.378h7.056v-23.378Z"/><path class="cls-1" d="m148.331,79.094c-1.229-.881-2.28-.243-2.28,1.473v19.552h4.336v-16.752h0c0-1.547-.894-3.442-2.055-4.273Z"/><path class="cls-1" d="m135.345,127.39c0,7.258-.082,27.297-.083,27.499l-.004,1.089h-28.881l.005-1.098c0-.201.083-20.236.083-27.49,0-3.806.99-7.351,2.899-10.487-3.35,3.633-5.107,7.949-5.107,12.673,0,7.253-.096,27.288-.097,27.489l-.005,1.13h33.312l.006-1.119c0-.202.097-20.242.097-27.5,0-4.742-1.77-9.073-5.145-12.714,1.925,3.146,2.923,6.706,2.923,10.528Z"/><path class="cls-1" d="m158.502,36.206v-10.025h-4.175v-6.727h-7.094v-6.05h-10.134v-4.76h-4.165,0V0h-24.269v8.644h-4.165v4.76h-10.134v6.05h-7.094v6.727H.532s-.532,56.521-.532,91.298c0,16.375,4.296,31.404,12.768,44.667,6.708,10.502,16.009,19.862,27.645,27.82,19.543,13.366,38.896,18.171,39.71,18.369l1.55.377,1.55-.377c.814-.198,20.167-5.003,39.71-18.369,11.636-7.958,20.937-17.318,27.645-27.82,8.472-13.263,12.768-28.291,12.768-44.667,0-28.055-.047-81.273-.047-81.273h-4.796ZM15.549,72.133h17.116c.031-.534.099-1.058.203-1.569l-9.73-2.607c-.35-.094-.558-.453-.464-.803.094-.35.454-.559.803-.464l9.732,2.608c.168-.504.37-.993.606-1.462l-14.822-8.558c-.314-.181-.421-.582-.24-.896.181-.314.582-.421.896-.24l14.823,8.558c.292-.441.614-.86.964-1.254l-7.126-7.126c-.256-.256-.256-.672,0-.928.256-.256.671-.256.927,0l7.126,7.126c.394-.35.813-.672,1.254-.964l-8.558-14.823c-.181-.314-.074-.715.24-.896.314-.181.715-.074.896.24l8.558,14.822c.469-.235.957-.438,1.462-.606l-2.608-9.732c-.094-.35.114-.709.464-.803.349-.095.709.114.803.464l2.607,9.73c.511-.104,1.035-.172,1.569-.203v-17.116c0-.362.294-.656.656-.656s.656.294.656.656v17.116c.534.031,1.058.099,1.569.203l2.607-9.73c.094-.35.454-.558.803-.464.35.094.558.453.464.803l-2.608,9.732c.504.168.992.37,1.462.606l8.558-14.822c.181-.314.582-.421.896-.24.314.181.421.582.24.896l-8.558,14.823c.441.292.86.614,1.254.964l7.126-7.126c.256-.256.671-.256.927,0,.256.256.256.671,0,.928l-7.126,7.126c.35.394.672.813.964,1.254l14.823-8.558c.314-.181.715-.074.896.24.181.314.074.715-.24.896l-14.822,8.558c.235.469.438.957.606,1.462l9.732-2.608c.349-.095.709.114.803.464.094.35-.114.709-.464.803l-9.73,2.607c.104.511.172,1.035.203,1.569h17.116c.362,0,.656.294.656.656s-.294.656-.656.656h-17.116c-.031.534-.099,1.058-.203,1.569l9.73,2.607c.35.094.557.453.464.803-.079.293-.344.486-.633.486-.056,0-.113-.007-.17-.023l-9.732-2.608c-.168.504-.37.992-.606,1.462l14.822,8.558c.314.181.421.582.24.896-.121.21-.342.328-.569.328-.111,0-.224-.028-.327-.088l-14.823-8.558c-.292.441-.614.86-.964,1.254l7.126,7.126c.256.256.256.671,0,.927-.128.128-.296.192-.464.192s-.336-.064-.464-.192l-7.126-7.126c-.394.35-.813.672-1.254.964l8.558,14.823c.181.314.074.715-.24.896-.103.06-.216.088-.327.088-.227,0-.447-.117-.569-.328l-8.558-14.822c-.469.235-.957.438-1.462.606l2.608,9.733c.094.35-.114.71-.464.803-.057.015-.114.023-.17.023-.29,0-.555-.193-.633-.486l-2.607-9.73c-.511.104-1.035.172-1.569.203v17.117c0,.362-.294.656-.656.656s-.656-.294-.656-.656v-17.117c-.534-.031-1.058-.099-1.569-.203l-2.607,9.73c-.078.293-.343.486-.633.486-.056,0-.113-.007-.17-.023-.35-.094-.557-.453-.464-.803l2.608-9.733c-.504-.168-.992-.37-1.462-.606l-8.558,14.822c-.121.21-.342.328-.569.328-.111,0-.224-.028-.327-.088-.314-.181-.421-.582-.24-.896l8.558-14.823c-.441-.292-.86-.614-1.254-.964l-7.126,7.126c-.128.128-.296.192-.464.192s-.336-.064-.464-.192c-.256-.256-.256-.671,0-.927l7.126-7.126c-.35-.394-.672-.813-.964-1.254l-14.823,8.558c-.103.06-.216.088-.327.088-.227,0-.447-.118-.569-.328-.181-.314-.074-.715.24-.896l14.822-8.558c-.235-.469-.438-.957-.606-1.462l-9.732,2.608c-.057.015-.114.023-.17.023-.29,0-.554-.193-.633-.486-.094-.35.114-.709.464-.803l9.73-2.607c-.104-.511-.172-1.035-.203-1.569H15.549c-.362,0-.656-.294-.656-.656s.294-.656.656-.656Zm40.828,48.985c.431.755,1.021,1.122,1.804,1.122.756,0,1.321-.313,1.727-.956.421-.666.635-1.648.635-2.917,0-1.041-.207-1.861-.616-2.436-.398-.56-.931-.832-1.629-.832-.113,0-.223.017-.333.039-.001-.002-.002-.003-.003-.005-.722.127-.923-.901-.506-1.214.059-.039.117-.077.186-.119.571-.353,1.12-.533,1.632-.533,1.188,0,2.156.456,2.879,1.354.711.885,1.071,2.051,1.071,3.468,0,1.423-.513,2.681-1.525,3.737-1.015,1.059-2.261,1.596-3.703,1.596-1.469,0-2.697-.537-3.65-1.595-.947-1.052-1.428-2.341-1.428-3.831,0-2.739,1.294-5.343,3.847-7.738.671-.633,1.41-1.221,2.196-1.748.785-.527,1.582-.971,2.37-1.32,1.073-.475,1.384-.536,1.536-.536.143,0,.474.062.474.637,0,.285-.126.385-.234.418-2.085.696-3.859,2.004-5.273,3.887-1.413,1.882-2.13,3.965-2.13,6.192,0,1.427.227,2.548.675,3.332Zm-9.48-.567c-.419-.478-.926-.71-1.549-.71-.502,0-.919.097-1.24.289l-.127.038c-.189.005-.322-.067-.439-.209-.107-.129-.161-.268-.161-.413,0-.239.134-.342.215-.382,2.365-1.14,3.563-2.395,3.563-3.729,0-.443-.146-.79-.447-1.063-.307-.278-.707-.414-1.223-.414-.96,0-1.664.335-2.153,1.024-.175.233-.52.239-.777.041-.176-.136-.213-.279-.213-.376,0-.165.089-.414.731-1.118.465-.509.995-.915,1.575-1.205.586-.293,1.178-.441,1.76-.441.881,0,1.652.292,2.291.869.646.583.973,1.267.973,2.032,0,.65-.218,1.27-.648,1.845-.349.466-.886.962-1.6,1.477.747.191,1.35.571,1.799,1.131.545.68.821,1.576.821,2.66,0,.98-.334,1.946-.994,2.871-.65.912-1.544,1.713-2.658,2.381-1.138.682-2.068,1.014-2.844,1.014-1.468,0-1.776-.625-1.776-1.148,0-.636.367-.986,1.034-.986.3,0,.648.099,1.063.301.34.174.522.21.615.21.802,0,1.491-.413,2.106-1.264.622-.861.937-1.856.937-2.958,0-.703-.207-1.282-.634-1.768Zm-15.504-9.519c0-1.24.42-2.291,1.247-3.124.828-.833,1.865-1.256,3.08-1.256,1.241,0,2.27.357,3.059,1.061.795.711,1.199,1.624,1.199,2.715,0,.795-.292,1.603-.869,2.401-.507.702-1.129,1.285-1.851,1.737.982.876,1.681,1.656,2.081,2.323.439.733.662,1.496.662,2.269,0,1.197-.445,2.218-1.323,3.037-.874.814-2.002,1.227-3.353,1.227-1.364,0-2.483-.378-3.326-1.124-.85-.753-1.281-1.707-1.281-2.837,0-.828.318-1.67.945-2.503.56-.745,1.299-1.405,2.197-1.966-1.638-1.377-2.468-2.708-2.468-3.959Zm-7.159,2.909c-.149-.148-.355-.132-.527-.086-.207.055-.531.218-.963.483-.174.111-.304.159-.418.152-.129-.008-.248-.084-.365-.233-.309-.392-.09-.614-.016-.673.253-.199.637-.472,1.143-.811.549-.374.823-.564,1.121-.798.291-.229.445-.333.949-.768.316-.273.631-.579.884-.79.159-.133.434-.074.601.058.244.194.244.349.244.588v9.288c0,.467.044.815.13,1.033.075.191.19.318.349.387.192.084.537.157,1.026.216.196.019.326.05.416.103.13.077.195.226.195.445,0,.486-.267.538-.381.538-.331,0-.814-.024-1.434-.07-.663-.046-1.188-.069-1.559-.069-.379,0-.907.023-1.572.069-.604.046-1.075.07-1.398.07-.095,0-.405-.039-.405-.538,0-.207.062-.353.185-.434.093-.061.229-.096.444-.115.739-.095.995-.202,1.082-.258.139-.089.237-.226.299-.419.07-.218.106-.541.106-.959v-5.764c0-.279,0-.511-.135-.645Zm54.069,87.064c-12.88-3.964-58.839-20.98-69.516-64.558,17.656,3.981,49.413,12.551,69.516,26.234v38.324ZM142.184,28.77h2.507v-2.758h3.077v2.758h2.507v2.658h-8.091v-2.658Zm-9.37-8.808h7.86v2.493h-7.86v-2.493Zm-17.592-13.404h11.153v2.493h-11.153v-2.493Zm-4.165,8.644h5.606v-3.965h8.27v3.965h5.606v2.493h-19.483v-2.493Zm-10.133,4.76h7.86v2.493h-7.86v-2.493Zm-9.601,8.808h2.507v-2.758h3.077v2.758h2.507v2.658h-8.091v-2.658Zm66.593,16.488h-7.641v2.186h6.463v72.899c-.808,24.298-11.861,41.92-25.249,54.43-.541-.584-1.114-1.15-1.725-1.695-3.751-3.353-7.546-4.801-7.706-4.861l-1.153-.433-1.154.433c-.16.06-3.954,1.508-7.705,4.861-5.082,4.541-7.768,10.438-7.768,17.051,0,.879-.001,1.949-.003,3.146-8.337,4.129-15.498,6.589-19.415,7.786V47.444h6.463v-2.186h-7.641v-2.493h7.641v-5.346h11.115v-2.186h-12.784v-2.493h12.784v-8.098h6.345v2.181h3.911v-6.94h16.208v6.94h3.911v-2.181h6.345v8.098h12.784v2.493h-12.784v2.186h11.115v5.346h7.641v2.493Z"/><circle class="cls-1" cx="120.799" cy="47.542" r="6.963" transform="translate(58.483 161.425) rotate(-82.795)"/><path class="cls-1" d="m120.799,58.877c5.045,0,9.149-4.104,9.149-9.149,0-.37-.028-.734-.072-1.093-.543,4.53-4.403,8.056-9.077,8.056s-8.535-3.526-9.078-8.056c-.043.359-.072.722-.072,1.093,0,5.045,4.104,9.149,9.149,9.149Z"/><path class="cls-1" d="m111.209,76.741c0-1.948-1.579-3.528-3.528-3.528s-3.528,1.58-3.528,3.528h0v23.378h7.056v-23.378Z"/><path class="cls-1" d="m254.616,162.072v-41.481c0-6.398,3.383-8.799,8.983-8.799v-2.401h-22.825v2.401c7.292.457,10.99.913,10.99,8.799v41.481c0,13.37-4.015,25.37-21.555,25.37s-20.287-12.913-20.287-21.027v-45.824c0-6.169,1.372-8.914,9.297-8.799v-2.401h-27.577v2.401c6.867.344,7.607,1.257,7.607,8.799v42.738c0,14.17,6.235,26.511,27.682,26.511,22.085,0,27.685-11.884,27.685-27.768Z"/><path class="cls-1" d="m302.793,179.784v-27.083c0-8.57-7.82-15.083-15.427-15.083-6.657,0-10.037,3.886-14.37,8.686v-8.686c-4.542,1.829-8.77,3.886-13.525,5.372v1.257c3.7,1.141,5.177,2.855,5.177,7.198v28.34c0,5.944-1.372,5.944-6.127,6.285v2.173h20.392v-2.173c-4.542-.341-5.917-.341-5.917-6.285v-27.083c0-5.256,6.34-10.056,10.885-10.056,6.867,0,10.565,4.799,10.565,12v25.139c0,5.944-1.372,5.944-6.127,6.285v2.173h20.922v-2.173c-3.595-.341-6.447-.341-6.447-6.285Z"/><path class="cls-1" d="m311.132,186.069v2.173h20.287v-2.173c-4.437-.341-5.81-.341-5.81-6.285v-42.739c-4.758,1.944-9.512,4.002-14.055,6.056v1.144c1.48.228,2.43.344,3.805,1.141,1.902,1.372,1.902,4.571,1.902,6.972v27.424c0,5.944-1.375,5.944-6.13,6.285Z"/><path class="cls-1" d="m326.031,114.192c0-2.858-2.325-5.828-5.072-5.828-2.957,0-5.495,2.627-5.495,5.828s2.538,5.941,5.495,5.941,5.072-2.97,5.072-5.941Z"/><path class="cls-1" d="m372.297,147.559c1.585-3.884,3.487-6.513,7.502-6.513v-2.173h-16.377v2.173c2.007,0,6.762-.228,6.762,3.086,0,1.598-.527,3.083-1.162,4.571l-11.94,28.797-10.142-28.227c-.848-2.514-1.375-4.456-1.375-5.14,0-3.201,4.967-3.086,6.867-3.086v-2.173h-22.295v2.173c5.282.228,5.812,2.286,7.397,6.628l15.427,41.823h1.795l17.54-41.938Z"/><path class="cls-1" d="m419.537,171.214l-1.795-.569c-2.642,6.854-9.087,11.312-15.955,11.312-11.2,0-18.702-8.686-18.702-20.686,0-2.17.21-4.34.527-6.513h35.397c-2.43-11.428-10.882-17.141-21.345-17.141-13.1,0-22.612,12.226-22.612,25.939,0,15.427,8.665,25.942,22.93,25.942,10.885,0,18.175-7.542,21.555-18.285Zm-22.927-31.198c6.867,0,9.192,5.6,9.615,12.115h-21.872c2.007-6.287,5.387-12.115,12.257-12.115Z"/><path class="cls-1" d="m445.856,136.817c-4.545,0-7.925,5.371-10.567,8.686v-8.229c-4.332,1.829-8.557,4.23-12.995,5.828v1.144c3.697,1.942,4.86,2.17,4.86,6.628v28.91c0,5.944-1.372,5.944-5.917,6.285v2.173h21.027v-2.173c-5.39-.341-6.762-.341-6.762-6.285v-30.282c0-1.829,3.91-5.028,5.705-5.028,2.747,0,4.545,1.942,6.235,1.942,2.217,0,4.015-1.826,4.015-4.343,0-3.543-2.535-5.256-5.6-5.256Z"/><path class="cls-1" d="m459.248,147.902c0-4.684,2.852-8.114,7.29-8.114,7.08,0,11.308,6.628,12.575,13.485h1.69v-12.113c-4.437-1.714-9.085-3.543-13.842-3.543-7.08,0-14.37,4.343-14.37,12.913,0,7.998,5.18,10.741,11.095,14.398,4.755,2.971,11.307,5.141,11.307,12.113,0,6.513-3.065,10.284-9.192,10.284-8.03,0-10.145-8.226-12.047-14.968h-1.267v13.483c4.227,2.629,8.77,3.658,13.525,3.658,8.665,0,17.012-5.028,17.012-15.427,0-16.684-23.775-16.34-23.775-26.17Z"/><path class="cls-1" d="m499.915,179.784v-42.739c-4.755,1.944-9.507,4.002-14.052,6.056v1.144c1.48.228,2.43.344,3.805,1.141,1.9,1.372,1.9,4.571,1.9,6.972v27.424c0,5.944-1.372,5.944-6.127,6.285v2.173h20.287v-2.173c-4.437-.341-5.812-.341-5.812-6.285Z"/><path class="cls-1" d="m495.267,120.133c2.957,0,5.073-2.97,5.073-5.941,0-2.858-2.325-5.828-5.073-5.828-2.96,0-5.495,2.627-5.495,5.828s2.535,5.941,5.495,5.941Z"/><path class="cls-1" d="m534.879,183.556c.95-1.029,3.38-2.742,1.267-3.886-2.325,1.601-5.708,4.115-8.56,4.115-5.81,0-7.29-3.314-7.29-9.027v-30.169h13.102l2.535-5.715h-15.637v-9.255h-.213c-4.12,5.028-8.98,9.255-13.417,13.942v1.029h5.492v31.311c0,7.429,3.173,13.598,10.78,13.598,4.437,0,9.087-2.283,11.94-5.941Z"/><path class="cls-1" d="m571.831,138.873v2.173c2.747.115,7.502,0,7.502,3.771,0,1.144-.422,3.086-1.163,5.6l-8.452,26.396-14.475-29.138c-.848-1.713-1.27-3.086-1.27-3.43,0-3.199,5.705-3.199,7.82-3.199v-2.173h-22.93v2.173c4.967.913,4.227,1.029,6.867,5.941l20.5,40.456-3.275,11.312c-.74,2.398-2.007,5.828-4.968,5.484-1.162-.113-2.217-.572-3.38-.685-2.538.113-4.015,1.942-4.015,4.686,0,2.398,1.69,4.569,4.015,4.569,6.022,0,8.242-6.626,10.037-11.997l17.012-52.797c1.585-5.028,2.957-6.97,8.03-6.97v-2.173h-17.857Z"/><path class="cls-1" d="m258.326,203.437c-1.039,0-1.622.105-2.619.105s-1.685-.105-2.64-.105c-.084,0-.168.228-.168.373,0,.168.084.375.168.375,1.787.207,2.12.667,2.12,1.766v6.322c0,3.139-1.351,4.781-3.868,4.781-2.556,0-3.868-1.162-3.868-4.532v-6.571c0-1.099.273-1.559,2.081-1.766.081,0,.165-.207.165-.375,0-.144-.084-.373-.165-.373-1.372,0-2.351.105-3.637.105s-2.267-.105-3.64-.105c-.084,0-.168.228-.168.373,0,.168.084.375.168.375,1.808.207,2.078.667,2.078,1.766v6.363c0,3.679,2.162,5.904,6.487,5.904,3.721,0,5.385-2.577,5.385-5.739v-6.529c0-1.141.312-1.559,2.12-1.766.084,0,.168-.207.168-.375,0-.144-.084-.373-.168-.373Zm-13.409,9.211v-7.195c0-.706-.333-1.372-1.123-1.559.541.042.997.063,1.685.063s1.165-.021,1.703-.063c-.787.186-1.141.853-1.141,1.559v6.736c0,3.973,2.285,5.636,4.7,5.636-3.889,0-5.823-2.33-5.823-5.177Zm10.686-7.505c-.165-.624-.646-1.102-1.246-1.249.375.042.748.063,1.204.063.189,0,.853,0,1.021-.021-.52.207-.832.604-.979,1.207Z"/><path class="cls-1" d="m269.822,203.54c-3.805,0-5.967-.126-6.799-.291-.249,1.372-.541,2.91-.937,4.325-.039.126.21.249.438.249.123,0,.27-.042.312-.123.58-1.748,2.556-3.306,4.033-3.306h.478c.664,0,.895.186.895.811v10.187c0,1.102-.27,1.559-2.081,1.745-.084.023-.165.231-.165.375,0,.165.081.375.165.375,1.372,0,2.372-.105,3.661-.105,1.267,0,2.246.105,3.616.105.084,0,.168-.21.168-.375,0-.144-.084-.352-.168-.375-1.808-.186-2.078-.643-2.078-1.745v-10.187c0-.583.228-.811.895-.811h.643c1.643,0,3.057,1.475,3.577,3.306.021.06.186.123.312.123.27,0,.457-.123.438-.249-.231-1.475-.396-2.994-.501-4.325-.811.165-3.118.291-6.902.291Zm-6.655,2.12c.084-.436.273-1.475.354-1.955.375.063,1.225.126,1.913.168-.937.312-1.745,1.06-2.267,1.787Zm6.219,11.706c-.688,0-1.165.021-1.706.081.79-.207,1.141-.853,1.141-1.559v-10.769c0-.664-.144-1.018-.622-1.204.291.018.727.039,1.186.039.352,0,.832-.021,1.057-.039-.394.207-.498.622-.498,1.288v10.685c0,.706.333,1.351,1.123,1.559-.541-.06-1.018-.081-1.682-.081Zm4.031-13.472c.895-.042,1.874-.084,2.372-.126.039.417.27,1.351.331,1.727-.52-.769-1.433-1.477-2.703-1.601Z"/><path class="cls-1" d="m285.505,206.118c0-1.267.892-2.162,2.328-2.162,1.538,0,2.516,1.06,3.015,3.201.018.126.228.165.394.165.144,0,.375-.081.354-.165-.147-1.144-.21-2.285-.27-3.472-1.498-.165-1.934-.583-3.472-.583-3.099,0-4.991,1.997-4.991,4.325,0,4.054,6.859,4.408,6.859,7.61,0,1.394-.727,2.349-2.451,2.349-1.85,0-3.348-1.351-4.012-3.886-.042-.126-.21-.168-.354-.168-.165,0-.394.084-.394.168.081.997.123,2.742.165,3.865,1.622.147,2.661.853,4.553.853,3.015,0,5.072-1.747,5.072-4.616,0-4.012-6.797-4.553-6.797-7.484Zm5.049-2.018c.021.27.063.811.084,1.042-.312-.562-.832-1.102-1.433-1.331.373.081.934.249,1.349.289Zm-7.316,12.85c-.021-.375-.042-1.081-.063-1.477.249.52.955,1.435,1.309,1.748-.249-.063-.937-.249-1.246-.27Zm5.259.664c1.186-.415,1.79-1.144,1.79-2.535,0-3.784-6.841-3.826-6.841-7.817,0-1.27.895-2.931,2.808-3.432-1.352.438-1.955,1.477-1.955,2.703,0,1.685,1.706,2.829,3.243,3.703,1.994,1.123,3.658,2.12,3.658,3.991,0,1.745-1.183,2.952-2.703,3.388Z"/><path class="cls-1" d="m304.317,204.186c.105,0,.165-.207.165-.375,0-.144-.06-.372-.165-.372-1.372,0-2.328.102-3.619.102s-2.265-.102-3.658-.102c-.084,0-.165.228-.165.372,0,.168.081.375.165.375,1.808.207,2.078.664,2.078,1.766v9.439c0,1.102-.27,1.559-2.078,1.748-.084.021-.165.228-.165.373,0,.168.081.375.165.375,1.393,0,2.372-.105,3.658-.105s2.246.105,3.619.105c.105,0,.165-.207.165-.375,0-.144-.06-.352-.165-.373-1.787-.189-2.057-.645-2.057-1.748v-9.439c0-1.102.27-1.559,2.057-1.766Zm-2.349,13.262c-.561-.06-1.021-.081-1.706-.081s-1.144.021-1.703.081c.787-.207,1.141-.85,1.141-1.559v-10.436c0-.706-.354-1.372-1.141-1.559.559.042,1.018.06,1.703.06s1.144-.018,1.706-.06c-.79.186-1.144.853-1.144,1.559v10.436c0,.708.354,1.351,1.144,1.559Z"/><path class="cls-1" d="m317.93,203.456c-.937,0-2.889.063-3.847.063-.976,0-3.099-.021-4.033-.063-.084,0-.165.231-.165.375,0,.165.081.375.165.375,1.787.207,2.078.664,2.078,1.766v9.418c0,1.102-.291,1.559-2.078,1.748-.084.021-.165.228-.165.373,0,.168.081.375.165.375.934-.042,3.057-.063,4.033-.063.958,0,2.91.063,3.847.063,5.76,0,8.19-3.285,8.19-7.132,0-4.054-2.763-7.298-8.19-7.298Zm-3.264,13.973c-.436-.042-.811-.063-1.393-.063-.685,0-1.144.021-1.685.081.792-.207,1.123-.85,1.123-1.559v-10.436c0-.706-.331-1.372-1.123-1.559.54.042,1,.06,1.685.06.582,0,.958,0,1.393-.039-.666.144-.832.58-.832,1.372v10.769c0,.769.165,1.204.832,1.372Zm3.18-.396l-1.393-.042c-.561-.021-1.204-.186-1.204-1.204v-10.208c0-1.021.643-1.186,1.204-1.207l1.393-.042c3.243-.042,4.97,2.58,4.97,6.424,0,3.745-1.79,6.3-4.97,6.279Zm1.186.438c2.808-.729,4.45-3.12,4.45-6.799,0-3.724-1.685-6.114-4.369-6.778,3.91.769,5.616,3.243,5.616,6.778,0,3.514-1.79,6.028-5.697,6.799Z"/><path class="cls-1" d="m343.483,213.456c-.126,0-.228.021-.249.084-.604,1.913-2.372,3.388-4.306,3.388h-1.661c-.541,0-1.207-.207-1.207-1.225v-4.76h1.664c1.249,0,1.976.601,2.162,2.285.021.084.228.165.375.165.165,0,.373-.081.373-.165,0-1.039-.105-1.685-.105-2.661s.105-1.664.105-2.703c0-.105-.207-.165-.373-.165-.147,0-.354.06-.375.165-.186,1.685-.913,2.225-2.162,2.225h-1.664v-4.45c0-1.018.666-1.246,1.207-1.246h1.661c1.79,0,3.099,1.207,3.495,3.057.018.06.144.144.291.144.289,0,.499-.123.475-.27-.205-1.205-.352-2.724-.415-3.886-1.33.042-4.574.102-5.946.102s-4.658-.06-5.965-.102c-.084,0-.168.228-.168.372,0,.168.084.375.168.375,1.787.207,2.078.664,2.078,1.766v9.439c0,1.102-.291,1.559-2.078,1.748-.084.021-.168.228-.168.373,0,.168.084.375.168.375,1.307-.042,4.802-.105,6.175-.105s4.697.063,6.028.105c.228-1.289.561-2.91.916-4.138.042-.144-.228-.291-.499-.291Zm-3.661-3.742v.853c0,.207,0,.666.021.832-.249-.415-.561-.769-1.351-.874.79-.102,1.102-.436,1.331-.811Zm1.976-5.799c.021.249.165,1.102.207,1.351-.478-.666-1.267-1.249-2.225-1.312.561,0,1.519-.018,2.018-.039Zm-7.715,13.493c-.685,0-1.142.021-1.703.063.79-.189,1.144-.853,1.144-1.561v-10.457c0-.706-.354-1.372-1.144-1.58.934.042,2.349.063,3.243.063-.687.249-.976.85-.976,1.517v10.457c0,.709.352,1.31,1.142,1.499h-1.706Zm7.922,0c-.561,0-1.538-.021-2.183-.042,1.351-.147,1.997-.727,2.558-1.331-.126.352-.333,1.102-.375,1.373Z"/><path class="cls-1" d="m226.361,198.545c-7.13,0-11.318,4.962-11.318,10.903,0,5.972,4.188,10.696,11.318,10.696s11.321-4.723,11.321-10.696c0-5.941-4.188-10.903-11.321-10.903Zm-10.397,10.785c0-5.051,3.267-9.268,8.526-10.132-4.01.803-6.744,4.665-6.744,10.132,0,5.495,2.734,9.386,6.744,10.189-5.259-.861-8.526-5.109-8.526-10.189Zm3.802.118c0-5.497,2.049-9.685,6.594-9.685s6.597,4.188,6.597,9.685c0,5.526-2.052,9.507-6.597,9.507s-6.594-3.981-6.594-9.507Zm8.229,10.071c4.01-1.039,5.883-5.169,5.883-10.189s-1.874-9.061-5.883-10.132c5.109,1.01,7.665,4.873,7.665,10.132s-2.556,9.179-7.665,10.189Z"/><path class="cls-1" d="m400.442,200.046c-1.661-.918-3.551-1.386-5.61-1.386s-3.947.47-5.605,1.401c-1.658.929-2.981,2.22-3.931,3.842-.95,1.616-1.43,3.451-1.43,5.453s.48,3.834,1.43,5.453c.95,1.619,2.273,2.91,3.931,3.839,1.661.929,3.548,1.401,5.605,1.401s3.949-.467,5.61-1.386c1.661-.921,2.981-2.207,3.928-3.826.952-1.622,1.433-3.466,1.433-5.482s-.48-3.865-1.433-5.484c-.947-1.617-2.267-2.905-3.928-3.826Zm2.708,14.141c-.834,1.438-1.992,2.582-3.44,3.396-1.443.814-3.086,1.228-4.878,1.228s-3.435-.415-4.891-1.228c-1.459-.819-2.621-1.958-3.456-3.396-.834-1.435-1.26-3.062-1.26-4.831s.425-3.398,1.26-4.836c.834-1.433,1.997-2.574,3.456-3.393,1.454-.814,3.102-1.228,4.891-1.228s3.435.414,4.878,1.228c1.448.816,2.606,1.958,3.44,3.393.834,1.438,1.26,3.065,1.26,4.836s-.425,3.396-1.26,4.831Z"/><path class="cls-1" d="m423.793,211.228c.619-.819.929-1.821.929-3.01,0-1.619-.554-2.881-1.661-3.792-1.102-.908-2.629-1.362-4.571-1.362h-5.639v15.193h1.349v-4.912h4.29c.467,0,.916-.026,1.349-.081l3.616,4.994h1.509l-3.831-5.261c1.152-.359,2.039-.95,2.661-1.769Zm-5.359.984h-4.235v-7.959h4.235c1.601,0,2.818.341,3.658,1.023.834.685,1.254,1.664,1.254,2.942s-.42,2.262-1.254,2.955c-.84.693-2.057,1.039-3.658,1.039Z"/><path class="cls-1" d="m442.988,204.022c-1.241-.638-2.698-.958-4.372-.958h-6.151v15.194h6.151c1.674,0,3.13-.32,4.372-.958,1.241-.638,2.196-1.535,2.863-2.687.664-1.149,1-2.472,1-3.965,0-1.475-.336-2.79-1-3.941-.666-1.149-1.622-2.047-2.863-2.685Zm1.687,9.998c-.548.974-1.344,1.729-2.388,2.267-1.044.541-2.286.811-3.724.811h-4.75v-12.847h4.75c1.438,0,2.679.27,3.724.811,1.044.541,1.839,1.291,2.388,2.254s.824,2.073.824,3.333c0,1.278-.275,2.401-.824,3.372Z"/><rect class="cls-1" x="454.466" y="203.065" width="1.351" height="15.193"/><polygon class="cls-1" points="476.92 215.883 466.72 203.064 465.587 203.064 465.587 218.258 466.935 218.258 466.935 205.413 477.164 218.258 478.298 218.258 478.298 203.064 476.92 203.064 476.92 215.883"/><path class="cls-1" d="m492.006,203.063l-7.046,15.193h1.378l1.944-4.209h8.822l1.916,4.209h1.404l-7.069-15.193h-1.349Zm-3.212,9.851l3.886-8.473,3.886,8.473h-7.773Z"/><path class="cls-1" d="m518.33,211.228c.619-.819.929-1.821.929-3.01,0-1.619-.554-2.881-1.661-3.792-1.102-.908-2.629-1.362-4.571-1.362h-5.639v15.193h1.349v-4.912h4.29c.467,0,.916-.026,1.349-.081l3.616,4.994h1.511l-3.834-5.261c1.152-.359,2.039-.95,2.661-1.769Zm-5.359.984h-4.235v-7.959h4.235c1.601,0,2.818.341,3.658,1.023.834.685,1.254,1.664,1.254,2.942s-.42,2.262-1.254,2.955c-.84.693-2.057,1.039-3.658,1.039Z"/><polygon class="cls-1" points="532.904 211.942 527.372 203.065 525.887 203.065 532.203 213.265 532.203 218.258 533.552 218.258 533.552 213.265 539.866 203.065 538.436 203.065 532.904 211.942"/><path class="cls-1" d="m363.087,210.149c0-2.532-1.595-4.046-3.138-4.046-3.165,0-6.636,4.285-6.636,8.187,0,2.517,1.582,4.02,3.112,4.02,3.175,0,6.663-4.272,6.663-8.161Zm-6.636,7.437c-.934,0-1.107-.533-1.107-1.588,0-1.986.593-4.246,1.627-6.193.968-1.821,2.107-2.952,2.978-2.952.913,0,1.081.525,1.081,1.561,0,1.999-.588,4.267-1.614,6.216-.958,1.824-2.094,2.955-2.965,2.955Z"/><path class="cls-1" d="m374.874,198.252c-2.196,0-3.913,1.575-4.967,2.897-1.239,1.548-2.236,3.632-2.606,5.437-.029.339-.52.606-2.86.879-.126.045-.236.157-.236.255,0,.013.003.283.176.283h2.136c.134,0,.223.031.281.094.071.084.066.197.05.299l-2.537,11.89c-.504,2.393-.895,3.521-2.278,3.521-.506,0-.863-.312-1.207-.617-.341-.299-.661-.585-1.118-.585-.698,0-1.084.386-1.084,1.084,0,.729.897,1.509,2.233,1.509,2.031,0,4.818-2.49,6.133-7.959l2.228-9.239,3.07.055c.134,0,.359-.304.359-.656,0-.362-.034-.362-.176-.362h-3.044l.018-.079c.123-.551.236-1.071.341-1.556.792-3.655,1.191-5.492,3.459-5.492.493,0,.848.247,1.191.485.333.231.651.449,1.081.449.832,0,1.349-.685,1.349-1.322,0-.806-.724-1.27-1.992-1.27Z"/></svg>