<?xml version="1.0" encoding="UTF-8" standalone="no"?>
<!DOCTYPE svg PUBLIC "-//W3C//DTD SVG 1.1//EN" "http://www.w3.org/Graphics/SVG/1.1/DTD/svg11.dtd">
<svg width="100%" height="100%" viewBox="0 0 126 68" version="1.1" xmlns="http://www.w3.org/2000/svg" xmlns:xlink="http://www.w3.org/1999/xlink" xml:space="preserve" xmlns:serif="http://www.serif.com/" style="fill-rule:evenodd;clip-rule:evenodd;stroke-linejoin:round;stroke-miterlimit:1.41421;">
    <g transform="matrix(1,0,0,1,-53,-661)">
        <path d="M156.131,707.226C156.131,707.226 155.153,709.621 154.792,710.503C154.485,710.615 154.208,710.717 154.035,710.78C154.434,709.769 154.838,708.745 154.838,708.745L155.577,706.985C155.577,706.985 155.721,706.642 155.859,706.316C156.174,706.286 156.435,706.261 156.521,706.253C156.343,706.698 156.131,707.226 156.131,707.226ZM150.359,711.058C150.277,711.081 150.268,711.084 150.177,711.109C150.299,710.783 150.469,710.329 150.469,710.329C150.469,710.329 151.027,708.68 151.027,708.679C151.032,708.668 151.171,708.292 151.171,708.292C151.206,708.17 151.223,708.045 151.223,707.915C151.223,707.71 151.178,707.494 151.091,707.272C151.094,707.284 151.104,707.323 151.113,707.359C151.106,707.331 151.102,707.306 151.091,707.272C151.09,707.27 151.09,707.269 151.089,707.267C151.071,707.215 151.035,707.131 150.983,707.019C151.394,706.963 151.844,706.902 151.844,706.902C151.844,706.902 152.046,706.873 152.119,706.863C151.974,707.209 150.784,710.044 150.359,711.058ZM156.38,693.426L156.385,689.506C156.385,688.137 157.499,687.024 158.869,687.024L166.345,687.024C167.716,687.024 168.831,688.137 168.831,689.506L168.836,693.426C168.836,694.794 167.717,695.908 166.34,695.908L158.875,695.908C157.499,695.908 156.38,694.794 156.38,693.426ZM173.001,711.291L172.789,711.214C172.698,711.181 172.472,711.134 172.161,711.149C173.037,709.396 174.342,706.783 174.342,706.783C174.342,706.783 174.156,706.475 174.126,706.424C174.211,706.328 174.529,705.975 174.529,705.975L172.786,703.585L172.24,703.706C172.139,703.729 171.577,703.873 170.392,704.527C169.165,705.203 167.885,706.239 166.882,707.371C166.804,707.459 166.731,707.548 166.656,707.636C166.746,707.406 166.811,707.236 166.82,707.213C166.888,707.067 167.014,706.755 167.014,706.406C167.014,706.018 166.877,705.747 166.762,705.581C166.732,705.526 166.388,704.896 166.388,704.896C166.329,704.782 166.228,704.621 166.091,704.468C166.094,704.462 166.057,704.42 166.052,704.422C165.898,704.263 165.7,704.118 165.453,704.057C164.911,703.921 164.418,704.16 164.281,704.237C164.292,704.23 164.203,704.272 164.072,704.334C164.061,704.323 162.125,702.245 162.125,702.245L159.876,706.898C159.876,706.898 159.221,708.288 158.749,709.29C158.752,709.282 158.783,709.191 158.783,709.191L160.033,705.948L161.369,702.869L159.119,700.329L168.208,700.329C171.432,700.329 174.053,697.719 174.053,694.511L174.053,688.422C174.053,685.213 171.437,682.604 168.22,682.604L156.995,682.604C153.779,682.604 151.161,685.213 151.161,688.422L151.161,694.511C151.161,697.719 153.784,700.329 157.006,700.329L159.027,700.329L158.511,701.441L157.801,702.972C157.382,703.01 156.925,703.051 156.873,703.056C156.763,702.934 156.637,702.795 156.637,702.795L154.69,700.784C154.69,700.784 153.789,702.913 153.567,703.438C153.053,703.507 151.774,703.679 151.774,703.679L151.594,704.141C151.594,704.141 150.824,706.083 150.692,706.42C150.656,706.346 150.645,706.353 150.645,706.353C150.501,706.026 150.293,705.656 149.838,705.505L149.609,705.433C149.45,705.391 149.24,705.391 149.028,705.461C149.855,703.598 150.815,701.498 150.828,701.467L151.056,700.969L150.409,700.23L150.409,695.908L138.799,695.908C137.423,695.908 136.303,694.794 136.303,693.426L136.308,689.506C136.308,688.137 137.424,687.024 138.794,687.024L150.409,687.024L150.409,682.604L150.367,682.604L136.785,682.604C133.568,682.604 130.952,685.213 130.952,688.422L130.947,694.511C130.947,697.719 133.567,700.329 136.79,700.329L147.639,700.329L145.05,706.003C145.05,706.003 144.702,706.788 144.235,707.841C144.116,707.687 142.674,705.819 142.674,705.819L142.166,705.908C142.03,705.932 141.512,706.053 140.535,706.607C139.607,707.135 138.392,708.094 137.44,709.05C136.728,709.763 135.723,711.249 135.335,711.836C135.265,711.858 135.236,711.868 135.147,711.896C135.334,711.437 135.561,710.881 135.561,710.881L136.793,708.252L138.208,705.077L137.95,704.675L136.032,701.781L135.398,703.189L134.382,705.444L134.384,705.447L132.804,708.882C132.324,709.886 131.603,711.627 131.035,713.028L129.927,711.523L129.333,711.82C129.333,711.82 127.904,712.531 127.806,712.58C128.345,711.254 128.99,709.709 129.415,708.817C130.285,706.999 132.996,700.821 133.111,700.559L133.326,700.067L130.603,696.945L130.061,698.168C130.018,698.264 125.744,707.904 124.887,709.698C124.01,711.531 122.321,715.829 122.25,716.011L122.124,716.331L123.758,720.218L124.647,719.448C124.665,719.433 126.506,717.841 127.789,716.952C128.46,716.487 129.344,715.94 130.045,715.518L129.996,715.644L131.785,717.937L132.464,717.18C132.985,716.602 133.929,715.592 134.246,715.34C134.276,715.317 134.33,715.281 134.367,715.252C134.449,715.556 134.697,715.958 135.351,716.576C135.361,716.587 135.373,716.588 135.384,716.597C134.659,717.194 133.515,718.357 133.398,719.864C133.361,720.336 133.348,720.913 133.348,721.525C133.348,723.63 133.514,726.16 133.524,726.297L133.527,726.363L133.543,726.429C133.588,726.624 133.782,727.278 134.408,727.443C134.96,727.589 135.426,727.299 135.555,727.206L135.734,727.08L139.969,718.319C139.969,718.319 140.645,716.867 140.783,716.572C141.039,716.413 141.792,715.945 142.438,715.544C142.681,715.881 143.794,717.429 143.794,717.429C143.794,717.429 145.114,714.432 145.835,712.799C145.715,713.123 145.497,713.719 145.497,713.719L145.697,714.056L147.143,716.552L147.928,715.777C148.221,715.486 149.034,714.72 149.604,714.302C149.76,714.551 150.934,716.41 150.934,716.41L151.688,715.687C151.7,715.676 152.888,714.539 153.646,714.046C153.835,713.923 154.034,713.802 154.226,713.69C154.421,713.944 155.429,715.266 155.429,715.266C155.429,715.266 157.493,713.539 157.591,713.458C157.648,713.512 159.658,715.447 159.658,715.447C159.658,715.447 161.498,711.413 161.954,710.413C161.594,711.318 161.035,712.726 161.035,712.726L161.385,713.124L163.154,715.08C163.154,715.08 164.228,713.639 164.573,713.177C164.921,713.663 165.449,714.101 165.457,714.106C165.5,714.133 165.562,714.171 165.652,714.203C165.483,714.315 165.328,714.422 165.216,714.509C164.53,715.036 163.154,716.094 163.005,718.17C162.983,718.467 162.974,718.818 162.974,719.195C162.974,720.96 163.167,723.295 163.191,723.58L163.191,723.585C163.191,723.592 163.193,723.6 163.193,723.607C163.194,723.61 163.195,723.623 163.195,723.625L163.195,723.62C163.203,724.056 163.396,724.596 163.936,724.826C164.404,725.026 164.901,724.893 165.21,724.702L165.416,724.574C165.416,724.574 169.721,715.887 169.942,715.443C171.046,714.832 172.329,714.183 172.635,714.116C172.761,714.097 172.819,714.115 172.82,714.115C172.946,714.216 173.1,714.341 173.1,714.341L173.694,714.199L174.942,713.58L173.001,711.291Z" style="fill:rgb(0,100,166);fill-rule:nonzero;"/>
        <path d="M151.087,707.259C151.088,707.262 151.088,707.264 151.089,707.267C151.089,707.268 151.09,707.269 151.09,707.27C151.09,707.268 151.087,707.259 151.087,707.259Z" style="fill:rgb(0,100,166);fill-rule:nonzero;"/>
        <path d="M160.399,703.033C160.393,702.991 159.313,701.772 159.313,701.772L159.274,701.728L159.249,701.781L158.488,703.42L159.568,704.835L160.399,703.033Z" style="fill:rgb(255,221,37);fill-rule:nonzero;"/>
        <path d="M136.455,706.989C136.455,706.989 136.961,705.817 137.275,705.159C137.272,705.121 136.207,703.515 136.207,703.515L136.168,703.456L136.139,703.52L135.313,705.357L136.405,706.916C136.406,706.919 136.455,706.989 136.455,706.989Z" style="fill:rgb(255,221,37);fill-rule:nonzero;"/>
        <path d="M128.14,713.318C127.338,713.751 126.416,714.391 126.119,714.603C126.353,714.007 127.883,710.143 128.682,708.469C129.545,706.663 132.338,700.299 132.366,700.235C132.359,700.194 130.869,698.485 130.869,698.485L130.829,698.439L130.804,698.494C130.761,698.592 126.483,708.242 125.62,710.046C124.756,711.853 123.024,716.262 123.007,716.307L123.002,716.322L124.073,718.872L124.114,718.837C124.132,718.821 126.006,717.202 127.326,716.287C128.646,715.371 130.768,714.148 130.79,714.135L130.827,714.114L129.696,712.579C129.65,712.566 128.14,713.318 128.14,713.318Z" style="fill:rgb(255,221,37);fill-rule:nonzero;"/>
        <path d="M155.542,714.013L155.541,714.014L155.542,714.013ZM166.906,716.153C166.811,716.364 164.767,720.909 164.634,721.205C164.632,720.902 164.619,718.99 164.619,718.99C164.619,718.989 164.618,718.971 164.618,718.939C164.618,718.819 164.627,718.516 164.71,718.242C164.965,717.401 166.493,716.408 166.906,716.153ZM137.484,717.616C137.385,717.833 135.236,722.532 135.101,722.829L135.101,720.668L135.166,719.925C135.276,719.072 137.028,717.906 137.484,717.616ZM141.578,708.885C141.482,709.086 139.609,713.004 139.598,713.027C139.576,713.038 138.657,713.515 138.657,713.515C138.322,713.688 137.539,713.956 137.421,713.922L137.325,713.835C137.305,713.8 137.282,713.737 137.282,713.639C137.282,713.572 137.293,713.487 137.324,713.383C137.43,713.021 138.057,712.172 139.24,710.787C140.178,709.69 141.257,709.06 141.578,708.885ZM171.462,706.739C171.375,706.914 169.523,710.641 169.523,710.641C169.522,710.632 167.638,711.565 167.359,711.632C167.251,711.658 167.178,711.652 167.134,711.613C167.092,711.577 167.071,711.504 167.071,711.384C167.071,711.322 167.076,711.248 167.087,711.158C167.125,710.843 167.884,709.959 168.688,709.023L169.23,708.39C170.098,707.366 171.155,706.868 171.462,706.739ZM172.52,711.978L172.51,711.974C172.493,711.968 172.083,711.827 171.376,712.216C171.375,712.216 170.734,712.533 170.507,712.645C170.606,712.446 173.407,706.838 173.407,706.838C173.405,706.802 173.118,706.31 173.112,706.301C173.135,706.311 173.465,705.945 173.465,705.945C173.467,705.897 172.457,704.512 172.457,704.512C172.397,704.501 171.915,704.613 170.786,705.236C169.652,705.859 168.421,706.858 167.492,707.907C166.573,708.943 165.839,710.138 165.829,710.153C165.824,710.147 165.271,710.374 165.271,710.374C165.271,710.374 164.773,710.7 164.566,710.835C164.641,710.637 165.303,708.889 165.303,708.889L166.067,706.908C166.071,706.901 166.201,706.641 166.201,706.406C166.201,706.135 166.064,705.995 166.058,705.989C166.065,705.998 165.674,705.284 165.674,705.284C165.666,705.269 165.473,704.896 165.258,704.843C164.986,704.775 164.688,704.937 164.676,704.944C164.676,704.944 163.522,705.491 163.195,705.646C163.255,705.501 163.489,704.931 163.489,704.931C163.481,704.891 162.379,703.708 162.379,703.708L162.341,703.667L160.619,707.225L159.008,710.646C158.952,710.688 157.878,711.156 157.12,711.48C157.174,711.326 158.024,708.903 158.024,708.903L159.085,706.284C159.081,706.247 158.057,704.769 158.057,704.769L158.016,704.71L156.887,707.524C156.887,707.524 155.404,711.153 155.403,711.156C155.398,711.144 154.152,711.599 154.152,711.599C154.152,711.599 152.946,712.023 152.627,712.134C152.686,711.984 154.081,708.452 154.081,708.452L154.831,706.664L155.308,705.534C156.333,705.423 156.628,705.435 156.631,705.435C156.669,705.411 157.263,703.889 157.263,703.889L157.286,703.831C157.286,703.831 155.945,703.953 155.829,703.964C155.867,703.869 156.061,703.4 156.061,703.4C156.053,703.357 155.001,702.271 155.001,702.271L154.96,702.229C154.96,702.229 154.127,704.198 154.127,704.199C154.124,704.181 152.381,704.414 152.381,704.414C152.35,704.438 151.714,706.044 151.714,706.044L151.69,706.105C151.69,706.105 153.298,705.885 153.424,705.868C153.376,705.981 152.901,707.099 152.901,707.099C152.901,707.099 150.953,711.742 150.951,711.746C150.946,711.733 149.815,712.054 149.815,712.054C149.413,712.184 148.959,712.442 148.772,712.554C148.843,712.363 149.702,710.058 149.702,710.058L150.256,708.424C150.255,708.426 150.387,708.074 150.387,708.074C150.451,707.856 150.365,707.641 150.332,707.559C150.316,707.485 149.969,706.788 149.863,706.576C149.862,706.572 149.793,706.343 149.58,706.273L149.277,706.238C149.229,706.225 148.575,706.57 147.364,707.252C148.091,705.5 150.069,701.175 150.089,701.131C150.083,701.09 148.873,699.711 148.873,699.711L148.834,699.666L148.809,699.72L145.795,706.328L142.529,713.687C142.537,713.674 141.704,714.129 140.829,714.505C140.916,714.323 143.403,709.113 143.403,709.113C143.401,709.077 143.007,708.438 143.001,708.428C143.025,708.437 143.348,708.07 143.348,708.07C143.349,708.022 142.344,706.72 142.344,706.72C142.289,706.709 141.857,706.789 140.938,707.311C140.081,707.798 138.908,708.726 138.016,709.62C137.2,710.439 135.865,712.506 135.851,712.53C135.847,712.522 134.613,712.916 134.613,712.916C134.196,713.079 133.826,713.298 133.654,713.404C133.738,713.199 134.814,710.563 134.814,710.563L135.868,708.313C135.865,708.275 134.796,706.638 134.796,706.638L134.757,706.58L133.538,709.23C132.674,711.038 130.945,715.445 130.928,715.49C130.934,715.527 131.8,716.637 131.8,716.637L131.829,716.675L131.86,716.64C131.874,716.625 133.256,715.09 133.74,714.706C134.152,714.38 135.127,713.774 135.415,713.597C135.372,713.737 135.246,714.152 135.246,714.152C135.245,714.152 135.16,714.765 135.16,714.765C135.16,714.765 135.145,714.979 135.145,714.985C135.145,715.243 135.729,715.817 135.91,715.989C136.118,716.185 136.519,716.039 137.185,715.699C137.676,715.45 138.545,714.792 138.87,714.54C138.786,714.708 138.372,715.527 138.372,715.527C138.368,715.523 136.407,716.84 136.407,716.84C136.389,716.851 134.345,718.16 134.209,719.926C134.051,721.958 134.332,726.2 134.335,726.243C134.339,726.264 134.419,726.608 134.616,726.659C134.839,726.718 135.074,726.554 135.084,726.547C135.097,726.532 139.233,717.974 139.233,717.974L140.153,716.002C140.156,716.007 142.678,714.441 142.685,714.436C142.684,714.437 142.684,714.437 142.684,714.438C142.684,714.495 143.584,715.746 143.584,715.746L143.624,715.802C143.624,715.802 146.587,709.074 146.588,709.074C146.59,709.079 148.124,708.151 148.522,707.911C148.45,708.103 147.59,710.376 147.59,710.376L146.399,713.62C146.401,713.652 147.295,715.194 147.295,715.194L147.32,715.237L147.355,715.201C147.367,715.19 148.569,714.003 149.313,713.506C149.902,713.114 150.335,712.931 150.495,712.868C150.446,712.999 150.188,713.678 150.188,713.678C150.192,713.712 151.065,715.096 151.065,715.096L151.091,715.136L151.124,715.104C151.137,715.091 152.379,713.903 153.202,713.368C153.924,712.898 154.719,712.487 154.92,712.385C154.875,712.52 154.724,712.975 154.724,712.975C154.729,713.01 155.536,714.067 155.536,714.067C155.592,714.073 157.157,712.765 157.157,712.765C157.644,712.404 158.252,712.051 158.458,711.934C158.394,712.097 158.116,712.805 158.116,712.805C158.126,712.847 159.355,714.03 159.355,714.03L159.395,714.067L161.537,709.371L162.452,707.369C162.446,707.379 162.715,707.127 163.227,706.857C163.227,706.857 164.169,706.375 164.458,706.228C164.391,706.403 163.411,708.944 163.411,708.944L161.983,712.541C161.989,712.582 163.062,713.768 163.062,713.768L163.093,713.803L164.272,712.223C164.542,711.843 165.14,711.415 165.419,711.226C165.341,711.352 165.239,711.53 165.196,711.675C165.13,711.892 165.084,712.268 165.084,712.427C165.084,712.44 165.084,712.453 165.085,712.462C165.095,712.606 165.767,713.344 165.887,713.419C166.054,713.524 166.64,713.379 167.313,713.065C167.922,712.781 168.679,712.184 168.967,711.949C168.834,712.218 168.116,713.667 168.116,713.667C168.113,713.661 166.295,714.699 165.714,715.148C165.077,715.638 163.939,716.513 163.816,718.227C163.696,719.907 164.002,723.52 164.005,723.557C164.004,723.569 163.987,723.966 164.256,724.081C164.499,724.185 164.769,724.021 164.78,724.014C164.795,723.998 169.332,714.845 169.332,714.845C169.342,714.846 171.916,713.405 172.502,713.316C173.07,713.231 173.284,713.462 173.286,713.464C173.332,713.473 173.608,713.337 173.608,713.337L173.652,713.314L172.52,711.978Z" style="fill:rgb(255,221,37);fill-rule:nonzero;"/>
        <path d="M175.824,698.798L175.824,698.16L176.342,698.16C176.567,698.16 176.812,698.194 176.812,698.473C176.812,698.841 176.418,698.798 176.164,698.798L175.824,698.798ZM176.464,698.972C176.787,698.964 177.037,698.832 177.037,698.477C177.037,698.325 176.97,698.164 176.834,698.088C176.698,698.007 176.545,697.999 176.392,697.999L175.603,697.999L175.603,699.805L175.824,699.805L175.824,698.972L176.231,698.972L176.749,699.805L177.012,699.805L176.464,698.972ZM176.206,700.325C175.416,700.325 174.78,699.691 174.78,698.9C174.78,698.118 175.416,697.483 176.206,697.483C176.99,697.483 177.628,698.118 177.628,698.9C177.628,699.691 176.99,700.325 176.206,700.325ZM176.206,700.52C177.101,700.52 177.823,699.797 177.823,698.9C177.823,698.012 177.101,697.289 176.206,697.289C175.306,697.289 174.58,698.012 174.58,698.9C174.58,699.797 175.306,700.52 176.206,700.52Z" style="fill:rgb(0,100,166);fill-rule:nonzero;"/>
        <path d="M80.534,682.603L58.581,682.603C56.023,682.603 53.941,684.68 53.941,687.233L53.936,700.329L59.377,700.329L59.382,688.505C59.382,687.688 60.046,687.024 60.863,687.024L65.352,687.024C66.165,687.024 66.827,687.688 66.827,688.505L66.827,700.329L72.268,700.329L72.278,688.505C72.278,687.688 72.94,687.024 73.753,687.024L78.242,687.024C79.056,687.024 79.718,687.688 79.718,688.505L79.718,700.329L85.159,700.329L85.159,687.233C85.159,684.68 83.084,682.603 80.534,682.603Z" style="fill:rgb(0,100,166);fill-rule:nonzero;"/>
        <path d="M102.988,682.603L102.988,693.426C102.988,694.795 101.874,695.908 100.503,695.908L94.047,695.908C92.677,695.908 91.563,694.795 91.563,693.426L91.563,682.603L86.121,682.603L86.122,694.511C86.122,697.719 88.745,700.329 91.97,700.329L102.581,700.329C105.806,700.329 108.43,697.719 108.43,694.511L108.43,682.603L108.388,682.603L102.988,682.603Z" style="fill:rgb(0,100,166);fill-rule:nonzero;"/>
        <path d="M124.972,689.445L115.437,689.445C114.765,689.445 114.217,688.902 114.217,688.235C114.217,687.567 114.762,687.024 115.432,687.024L129.577,687.024L129.577,682.604L129.535,682.604L114.591,682.604C111.577,682.604 109.126,685.047 109.126,688.049C109.126,691.052 111.58,693.495 114.596,693.495L124.132,693.495C124.804,693.495 125.352,694.038 125.352,694.706C125.352,695.373 124.806,695.916 124.136,695.916L109.461,695.916L109.461,700.337L124.977,700.337C127.991,700.337 130.442,697.894 130.442,694.891C130.442,691.888 127.989,689.445 124.972,689.445Z" style="fill:rgb(0,100,166);fill-rule:nonzero;"/>
        <path d="M121.255,662.059C116.714,662.059 112.885,665.119 111.712,669.275C110.539,665.119 106.71,662.059 102.17,662.059C97.629,662.059 93.8,665.119 92.627,669.275C91.454,665.119 87.625,662.059 83.084,662.059C78.543,662.059 74.715,665.119 73.542,669.275C72.369,665.119 68.54,662.059 63.999,662.059C58.529,662.059 54.079,666.494 54.079,671.945C54.079,677.396 58.529,681.831 63.999,681.831C68.54,681.831 72.369,678.771 73.542,674.614C74.715,678.771 78.543,681.831 83.084,681.831C87.625,681.831 91.454,678.771 92.627,674.614C93.8,678.771 97.629,681.831 102.17,681.831C106.71,681.831 110.539,678.771 111.712,674.615C112.885,678.771 116.714,681.831 121.255,681.831C126.725,681.831 131.175,677.396 131.175,671.945C131.175,666.494 126.725,662.059 121.255,662.059Z" style="fill:rgb(0,100,166);fill-rule:nonzero;"/>
        <path d="M63.999,680.583C59.219,680.583 55.331,676.708 55.331,671.945C55.331,667.182 59.219,663.307 63.999,663.307C68.779,663.307 72.667,667.182 72.667,671.945C72.667,676.708 68.779,680.583 63.999,680.583Z" style="fill:rgb(255,221,37);fill-rule:nonzero;"/>
        <path d="M83.084,680.583C78.304,680.583 74.416,676.708 74.416,671.945C74.416,667.182 78.304,663.307 83.084,663.307C87.864,663.307 91.753,667.182 91.753,671.945C91.753,676.708 87.864,680.583 83.084,680.583Z" style="fill:rgb(255,221,37);fill-rule:nonzero;"/>
        <path d="M102.17,680.583C97.39,680.583 93.501,676.708 93.501,671.945C93.501,667.182 97.39,663.307 102.17,663.307C106.95,663.307 110.838,667.182 110.838,671.945C110.838,676.708 106.95,680.583 102.17,680.583Z" style="fill:rgb(255,221,37);fill-rule:nonzero;"/>
        <path d="M121.255,680.583C116.475,680.583 112.586,676.708 112.586,671.945C112.586,667.182 116.475,663.307 121.255,663.307C126.035,663.307 129.923,667.182 129.923,671.945C129.923,676.708 126.035,680.583 121.255,680.583Z" style="fill:rgb(255,221,37);fill-rule:nonzero;"/>
    </g>
</svg>
